<?xml version="1.0" standalone="no"?>
<!DOCTYPE svg PUBLIC "-//W3C//DTD SVG 20010904//EN"
 "http://www.w3.org/TR/2001/REC-SVG-20010904/DTD/svg10.dtd">
<svg version="1.0" xmlns="http://www.w3.org/2000/svg"
 width="179.000000pt" height="179.000000pt" viewBox="0 0 179.000000 179.000000"
 preserveAspectRatio="xMidYMid meet">
<metadata>
Created by potrace 1.11, written by Peter Selinger 2001-2013
</metadata>
<g transform="translate(0.000000,179.000000) scale(0.100000,-0.100000)"
fill="#000000" stroke="none">
<path d="M20 963 l0 -313 51 0 c41 0 50 3 45 15 -7 19 -3 19 44 -5 77 -39 200
-19 260 43 l24 25 31 -25 c96 -82 224 -84 315 -5 33 28 70 78 70 94 0 2 -26 3
-59 3 -41 0 -63 -6 -75 -18 -28 -28 -48 -35 -92 -33 -123 6 -174 149 -83 233
44 40 126 41 168 2 16 -15 37 -21 81 -22 33 -1 60 -1 60 1 0 14 -34 62 -62 87
-55 49 -79 59 -156 61 -79 3 -119 -12 -173 -63 -22 -20 -29 -22 -35 -10 -17
27 -89 66 -141 75 -50 9 -88 1 -163 -32 -13 -5 -15 7 -15 86 1 51 0 98 -3 105
-2 8 -21 12 -48 10 l-44 -2 0 -312z m296 31 c81 -39 99 -153 35 -215 -29 -28
-55 -37 -97 -35 -76 4 -126 55 -128 131 -2 96 101 161 190 119z"/>
<path d="M992 1090 c-79 -36 -142 -129 -142 -210 0 -129 118 -246 243 -241 93
3 188 65 211 137 6 19 2 20 -47 19 -39 -1 -62 -7 -88 -25 -65 -47 -163 -26
-196 41 -22 45 -22 77 0 121 39 77 127 98 199 47 29 -21 124 -33 134 -17 3 5
-9 28 -27 53 -63 87 -188 120 -287 75z"/>
<path d="M1470 1099 c-90 -36 -149 -113 -157 -207 -5 -49 -1 -67 22 -115 85
-181 334 -185 425 -8 12 24 23 61 24 82 l3 39 -149 0 -148 0 0 -48 0 -48 80 1
c87 1 95 -7 40 -37 -90 -48 -195 16 -194 118 2 108 120 168 211 106 28 -19 51
-26 90 -26 29 -1 53 1 53 4 0 10 -38 65 -60 89 -51 53 -170 77 -240 50z"/>
<path d="M201 564 c0 -11 3 -14 6 -6 3 7 2 16 -1 19 -3 4 -6 -2 -5 -13z"/>
<path d="M31 554 c0 -11 3 -14 6 -6 3 7 2 16 -1 19 -3 4 -6 -2 -5 -13z"/>
<path d="M93 555 c-3 -9 -3 -18 -1 -21 3 -3 8 4 11 16 6 23 -1 27 -10 5z"/>
<path d="M155 560 c-3 -6 1 -13 9 -16 9 -3 13 -11 9 -17 -4 -6 -1 -7 7 -2 10
6 10 11 -3 20 -9 7 -14 15 -10 18 3 4 4 7 0 7 -3 0 -9 -5 -12 -10z"/>
<path d="M260 566 c0 -2 7 -7 16 -10 8 -3 12 -2 9 4 -6 10 -25 14 -25 6z"/>
<path d="M305 560 c-3 -6 1 -7 9 -4 18 7 21 14 7 14 -6 0 -13 -4 -16 -10z"/>
<path d="M391 557 c-8 -11 -6 -18 8 -31 15 -14 21 -15 27 -4 4 7 4 10 -1 6 -4
-4 -14 -3 -22 3 -10 9 -10 15 -2 25 6 8 9 14 6 14 -2 0 -10 -6 -16 -13z"/>
<path d="M449 553 c-13 -16 -12 -17 4 -4 9 7 17 15 17 17 0 8 -8 3 -21 -13z"/>
<path d="M510 555 c0 -8 2 -15 4 -15 2 0 6 7 10 15 3 8 1 15 -4 15 -6 0 -10
-7 -10 -15z"/>
<path d="M569 553 c-13 -16 -12 -17 4 -4 16 13 21 21 13 21 -2 0 -10 -8 -17
-17z"/>
<path d="M673 555 c0 -8 4 -15 9 -15 4 0 8 4 8 9 0 6 -4 12 -8 15 -5 3 -9 -1
-9 -9z"/>
<path d="M706 555 c-3 -8 -1 -15 4 -15 6 0 10 7 10 15 0 8 -2 15 -4 15 -2 0
-6 -7 -10 -15z"/>
<path d="M777 549 c4 -13 8 -18 11 -10 2 7 -1 18 -6 23 -8 8 -9 4 -5 -13z"/>
<path d="M1040 560 c-8 -5 -12 -12 -9 -15 4 -3 12 1 19 10 14 17 11 19 -10 5z"/>
<path d="M1167 563 c-10 -10 -8 -23 4 -23 5 0 8 4 5 9 -4 5 0 12 6 14 7 3 8 6
2 6 -6 1 -14 -2 -17 -6z"/>
<path d="M1290 559 c0 -5 5 -7 10 -4 6 3 10 8 10 11 0 2 -4 4 -10 4 -5 0 -10
-5 -10 -11z"/>
<path d="M1355 560 c-3 -5 -1 -10 4 -10 6 0 11 5 11 10 0 6 -2 10 -4 10 -3 0
-8 -4 -11 -10z"/>
<path d="M1413 554 c-3 -8 -2 -19 3 -24 5 -5 9 1 9 16 0 28 -3 30 -12 8z"/>
<path d="M1452 541 c0 -17 1 -31 3 -31 7 0 12 39 5 49 -4 7 -7 -1 -8 -18z"/>
<path d="M1510 555 c-7 -9 -11 -17 -9 -20 3 -2 10 5 17 15 14 24 10 26 -8 5z"/>
<path d="M1630 566 c0 -2 7 -9 15 -16 9 -7 15 -8 15 -2 0 5 -7 12 -15 16 -8 3
-15 4 -15 2z"/>
<path d="M127 539 c4 -13 8 -18 11 -10 2 7 -1 18 -6 23 -8 8 -9 4 -5 -13z"/>
<path d="M236 551 c-3 -4 3 -16 13 -25 17 -15 19 -15 32 1 12 16 12 17 -2 5
-13 -10 -18 -10 -28 1 -6 8 -8 17 -4 20 3 4 4 7 0 7 -3 0 -8 -4 -11 -9z"/>
<path d="M645 550 c-3 -5 -1 -10 4 -10 6 0 11 5 11 10 0 6 -2 10 -4 10 -3 0
-8 -4 -11 -10z"/>
<path d="M835 550 c-3 -5 -1 -10 4 -10 6 0 11 5 11 10 0 6 -2 10 -4 10 -3 0
-8 -4 -11 -10z"/>
<path d="M910 550 c0 -5 5 -10 10 -10 6 0 10 5 10 10 0 6 -4 10 -10 10 -5 0
-10 -4 -10 -10z"/>
<path d="M1200 554 c0 -6 7 -19 16 -30 14 -18 14 -18 3 6 -14 31 -19 36 -19
24z"/>
<path d="M1605 550 c-3 -5 -1 -10 4 -10 6 0 11 5 11 10 0 6 -2 10 -4 10 -3 0
-8 -4 -11 -10z"/>
<path d="M1772 555 c4 -4 3 -14 -3 -22 -9 -10 -15 -10 -25 -2 -9 7 -14 8 -14
1 0 -19 28 -21 45 -2 13 14 14 20 3 26 -7 4 -10 4 -6 -1z"/>
<path d="M807 543 c-9 -8 12 -33 27 -33 6 0 3 5 -7 11 -9 6 -15 14 -12 20 7
10 2 12 -8 2z"/>
<path d="M200 536 c0 -2 8 -10 18 -17 15 -13 16 -12 3 4 -13 16 -21 21 -21 13z"/>
<path d="M747 529 c7 -7 15 -10 18 -7 3 3 -2 9 -12 12 -14 6 -15 5 -6 -5z"/>
<path d="M1066 524 c-5 -14 -4 -15 9 -4 17 14 19 20 6 20 -5 0 -12 -7 -15 -16z"/>
<path d="M1130 529 c0 -5 5 -7 10 -4 6 3 10 8 10 11 0 2 -4 4 -10 4 -5 0 -10
-5 -10 -11z"/>
<path d="M1297 529 c7 -7 15 -10 18 -7 3 3 -2 9 -12 12 -14 6 -15 5 -6 -5z"/>
<path d="M1540 540 c-8 -26 -7 -41 2 -32 6 6 8 16 5 24 -3 7 -6 11 -7 8z"/>
<path d="M1695 530 c-3 -5 -2 -10 4 -10 5 0 13 5 16 10 3 6 2 10 -4 10 -5 0
-13 -4 -16 -10z"/>
<path d="M460 516 c7 -7 13 -7 20 0 6 6 3 10 -10 10 -13 0 -16 -4 -10 -10z"/>
<path d="M570 526 c0 -2 7 -7 16 -10 8 -3 12 -2 9 4 -6 10 -25 14 -25 6z"/>
</g>
</svg>
